<svg width="187" height="187" viewBox="0 0 187 187" fill="none" xmlns="http://www.w3.org/2000/svg">
<circle cx="3.22414" cy="3.22414" r="2.72414" stroke="#1252AE" stroke-opacity="0.2"/>
<circle cx="3.22414" cy="16.1206" r="2.72414" stroke="#1252AE" stroke-opacity="0.2"/>
<circle cx="3.22414" cy="29.0174" r="2.72414" stroke="#1252AE" stroke-opacity="0.2"/>
<circle cx="3.22414" cy="41.9138" r="2.72414" stroke="#1252AE" stroke-opacity="0.2"/>
<circle cx="3.22414" cy="54.8103" r="2.72414" stroke="#1252AE" stroke-opacity="0.2"/>
<circle cx="3.22414" cy="67.7068" r="2.72414" stroke="#1252AE" stroke-opacity="0.2"/>
<circle cx="3.22414" cy="80.6035" r="2.72414" stroke="#1252AE" stroke-opacity="0.2"/>
<circle cx="3.22414" cy="93.5" r="2.72414" stroke="#1252AE" stroke-opacity="0.2"/>
<circle cx="3.22414" cy="106.396" r="2.72414" stroke="#1252AE" stroke-opacity="0.2"/>
<circle cx="3.22414" cy="119.293" r="2.72414" stroke="#1252AE" stroke-opacity="0.2"/>
<circle cx="3.22414" cy="132.19" r="2.72414" stroke="#1252AE" stroke-opacity="0.2"/>
<circle cx="3.22414" cy="145.086" r="2.72414" stroke="#1252AE" stroke-opacity="0.2"/>
<circle cx="3.22414" cy="157.983" r="2.72414" stroke="#1252AE" stroke-opacity="0.2"/>
<circle cx="3.22414" cy="170.879" r="2.72414" stroke="#1252AE" stroke-opacity="0.2"/>
<circle cx="3.22414" cy="183.776" r="2.72414" stroke="#1252AE" stroke-opacity="0.2"/>
<circle cx="16.1207" cy="3.22414" r="2.72414" stroke="#1252AE" stroke-opacity="0.2"/>
<circle cx="16.1207" cy="16.1206" r="2.72414" stroke="#1252AE" stroke-opacity="0.2"/>
<circle cx="16.1207" cy="29.0174" r="2.72414" stroke="#1252AE" stroke-opacity="0.2"/>
<circle cx="16.1207" cy="41.9138" r="2.72414" stroke="#1252AE" stroke-opacity="0.2"/>
<circle cx="16.1207" cy="54.8103" r="2.72414" stroke="#1252AE" stroke-opacity="0.2"/>
<circle cx="16.1207" cy="67.7068" r="2.72414" stroke="#1252AE" stroke-opacity="0.2"/>
<circle cx="16.1207" cy="80.6035" r="2.72414" stroke="#1252AE" stroke-opacity="0.2"/>
<circle cx="16.1207" cy="93.5" r="2.72414" stroke="#1252AE" stroke-opacity="0.2"/>
<circle cx="16.1207" cy="106.396" r="2.72414" stroke="#1252AE" stroke-opacity="0.2"/>
<circle cx="16.1207" cy="119.293" r="2.72414" stroke="#1252AE" stroke-opacity="0.2"/>
<circle cx="16.1207" cy="132.19" r="2.72414" stroke="#1252AE" stroke-opacity="0.2"/>
<circle cx="16.1207" cy="145.086" r="2.72414" stroke="#1252AE" stroke-opacity="0.2"/>
<circle cx="16.1207" cy="157.983" r="2.72414" stroke="#1252AE" stroke-opacity="0.2"/>
<circle cx="16.1207" cy="170.879" r="2.72414" stroke="#1252AE" stroke-opacity="0.2"/>
<circle cx="16.1207" cy="183.776" r="2.72414" stroke="#1252AE" stroke-opacity="0.2"/>
<circle cx="29.0172" cy="3.22414" r="2.72414" stroke="#1252AE" stroke-opacity="0.2"/>
<circle cx="29.0172" cy="16.1206" r="2.72414" stroke="#1252AE" stroke-opacity="0.2"/>
<circle cx="29.0172" cy="29.0174" r="2.72414" stroke="#1252AE" stroke-opacity="0.2"/>
<circle cx="29.0172" cy="41.9138" r="2.72414" stroke="#1252AE" stroke-opacity="0.2"/>
<circle cx="29.0172" cy="54.8103" r="2.72414" stroke="#1252AE" stroke-opacity="0.2"/>
<circle cx="29.0172" cy="67.7068" r="2.72414" stroke="#1252AE" stroke-opacity="0.2"/>
<circle cx="29.0172" cy="80.6035" r="2.72414" stroke="#1252AE" stroke-opacity="0.2"/>
<circle cx="29.0172" cy="93.5" r="2.72414" stroke="#1252AE" stroke-opacity="0.2"/>
<circle cx="29.0172" cy="106.396" r="2.72414" stroke="#1252AE" stroke-opacity="0.2"/>
<circle cx="29.0172" cy="119.293" r="2.72414" stroke="#1252AE" stroke-opacity="0.2"/>
<circle cx="29.0172" cy="132.19" r="2.72414" stroke="#1252AE" stroke-opacity="0.2"/>
<circle cx="29.0172" cy="145.086" r="2.72414" stroke="#1252AE" stroke-opacity="0.2"/>
<circle cx="29.0172" cy="157.983" r="2.72414" stroke="#1252AE" stroke-opacity="0.2"/>
<circle cx="29.0172" cy="170.879" r="2.72414" stroke="#1252AE" stroke-opacity="0.2"/>
<circle cx="29.0172" cy="183.776" r="2.72414" stroke="#1252AE" stroke-opacity="0.2"/>
<circle cx="41.9138" cy="3.22414" r="2.72414" stroke="#1252AE" stroke-opacity="0.2"/>
<circle cx="41.9138" cy="16.1206" r="2.72414" stroke="#1252AE" stroke-opacity="0.2"/>
<circle cx="41.9138" cy="29.0174" r="2.72414" stroke="#1252AE" stroke-opacity="0.2"/>
<circle cx="41.9138" cy="41.9138" r="2.72414" stroke="#1252AE" stroke-opacity="0.2"/>
<circle cx="41.9138" cy="54.8103" r="2.72414" stroke="#1252AE" stroke-opacity="0.2"/>
<circle cx="41.9138" cy="67.7068" r="2.72414" stroke="#1252AE" stroke-opacity="0.2"/>
<circle cx="41.9138" cy="80.6035" r="2.72414" stroke="#1252AE" stroke-opacity="0.2"/>
<circle cx="41.9138" cy="93.5" r="2.72414" stroke="#1252AE" stroke-opacity="0.2"/>
<circle cx="41.9138" cy="106.396" r="2.72414" stroke="#1252AE" stroke-opacity="0.2"/>
<circle cx="41.9138" cy="119.293" r="2.72414" stroke="#1252AE" stroke-opacity="0.2"/>
<circle cx="41.9138" cy="132.19" r="2.72414" stroke="#1252AE" stroke-opacity="0.2"/>
<circle cx="41.9138" cy="145.086" r="2.72414" stroke="#1252AE" stroke-opacity="0.2"/>
<circle cx="41.9138" cy="157.983" r="2.72414" stroke="#1252AE" stroke-opacity="0.2"/>
<circle cx="41.9138" cy="170.879" r="2.72414" stroke="#1252AE" stroke-opacity="0.2"/>
<circle cx="41.9138" cy="183.776" r="2.72414" stroke="#1252AE" stroke-opacity="0.2"/>
<circle cx="54.8103" cy="3.22414" r="2.72414" stroke="#1252AE" stroke-opacity="0.2"/>
<circle cx="54.8103" cy="16.1206" r="2.72414" stroke="#1252AE" stroke-opacity="0.2"/>
<circle cx="54.8103" cy="29.0174" r="2.72414" stroke="#1252AE" stroke-opacity="0.2"/>
<circle cx="54.8103" cy="41.9138" r="2.72414" stroke="#1252AE" stroke-opacity="0.2"/>
<circle cx="54.8103" cy="54.8103" r="2.72414" stroke="#1252AE" stroke-opacity="0.2"/>
<circle cx="54.8103" cy="67.7068" r="2.72414" stroke="#1252AE" stroke-opacity="0.2"/>
<circle cx="54.8103" cy="80.6035" r="2.72414" stroke="#1252AE" stroke-opacity="0.2"/>
<circle cx="54.8103" cy="93.5" r="2.72414" stroke="#1252AE" stroke-opacity="0.2"/>
<circle cx="54.8103" cy="106.396" r="2.72414" stroke="#1252AE" stroke-opacity="0.2"/>
<circle cx="54.8103" cy="119.293" r="2.72414" stroke="#1252AE" stroke-opacity="0.2"/>
<circle cx="54.8103" cy="132.19" r="2.72414" stroke="#1252AE" stroke-opacity="0.2"/>
<circle cx="54.8103" cy="145.086" r="2.72414" stroke="#1252AE" stroke-opacity="0.2"/>
<circle cx="54.8103" cy="157.983" r="2.72414" stroke="#1252AE" stroke-opacity="0.2"/>
<circle cx="54.8103" cy="170.879" r="2.72414" stroke="#1252AE" stroke-opacity="0.2"/>
<circle cx="54.8103" cy="183.776" r="2.72414" stroke="#1252AE" stroke-opacity="0.2"/>
<circle cx="67.7069" cy="3.22414" r="2.72414" stroke="#1252AE" stroke-opacity="0.2"/>
<circle cx="67.7069" cy="16.1206" r="2.72414" stroke="#1252AE" stroke-opacity="0.2"/>
<circle cx="67.7069" cy="29.0174" r="2.72414" stroke="#1252AE" stroke-opacity="0.2"/>
<circle cx="67.7069" cy="41.9138" r="2.72414" stroke="#1252AE" stroke-opacity="0.2"/>
<circle cx="67.7069" cy="54.8103" r="2.72414" stroke="#1252AE" stroke-opacity="0.2"/>
<circle cx="67.7069" cy="67.7068" r="2.72414" stroke="#1252AE" stroke-opacity="0.2"/>
<circle cx="67.7069" cy="80.6035" r="2.72414" stroke="#1252AE" stroke-opacity="0.2"/>
<circle cx="67.7069" cy="93.5" r="2.72414" stroke="#1252AE" stroke-opacity="0.2"/>
<circle cx="67.7069" cy="106.396" r="2.72414" stroke="#1252AE" stroke-opacity="0.2"/>
<circle cx="67.7069" cy="119.293" r="2.72414" stroke="#1252AE" stroke-opacity="0.2"/>
<circle cx="67.7069" cy="132.19" r="2.72414" stroke="#1252AE" stroke-opacity="0.2"/>
<circle cx="67.7069" cy="145.086" r="2.72414" stroke="#1252AE" stroke-opacity="0.2"/>
<circle cx="67.7069" cy="157.983" r="2.72414" stroke="#1252AE" stroke-opacity="0.2"/>
<circle cx="67.7069" cy="170.879" r="2.72414" stroke="#1252AE" stroke-opacity="0.2"/>
<circle cx="67.7069" cy="183.776" r="2.72414" stroke="#1252AE" stroke-opacity="0.2"/>
<circle cx="80.6034" cy="3.22414" r="2.72414" stroke="#1252AE" stroke-opacity="0.2"/>
<circle cx="80.6034" cy="16.1206" r="2.72414" stroke="#1252AE" stroke-opacity="0.2"/>
<circle cx="80.6034" cy="29.0174" r="2.72414" stroke="#1252AE" stroke-opacity="0.2"/>
<circle cx="80.6034" cy="41.9138" r="2.72414" stroke="#1252AE" stroke-opacity="0.2"/>
<circle cx="80.6034" cy="54.8103" r="2.72414" stroke="#1252AE" stroke-opacity="0.2"/>
<circle cx="80.6034" cy="67.7068" r="2.72414" stroke="#1252AE" stroke-opacity="0.2"/>
<circle cx="80.6034" cy="80.6035" r="2.72414" stroke="#1252AE" stroke-opacity="0.2"/>
<circle cx="80.6034" cy="93.5" r="2.72414" stroke="#1252AE" stroke-opacity="0.2"/>
<circle cx="80.6034" cy="106.396" r="2.72414" stroke="#1252AE" stroke-opacity="0.2"/>
<circle cx="80.6034" cy="119.293" r="2.72414" stroke="#1252AE" stroke-opacity="0.2"/>
<circle cx="80.6034" cy="132.19" r="2.72414" stroke="#1252AE" stroke-opacity="0.2"/>
<circle cx="80.6034" cy="145.086" r="2.72414" stroke="#1252AE" stroke-opacity="0.2"/>
<circle cx="80.6034" cy="157.983" r="2.72414" stroke="#1252AE" stroke-opacity="0.2"/>
<circle cx="80.6034" cy="170.879" r="2.72414" stroke="#1252AE" stroke-opacity="0.2"/>
<circle cx="80.6034" cy="183.776" r="2.72414" stroke="#1252AE" stroke-opacity="0.2"/>
<circle cx="93.5" cy="3.22414" r="2.72414" stroke="#1252AE" stroke-opacity="0.2"/>
<circle cx="93.5" cy="16.1206" r="2.72414" stroke="#1252AE" stroke-opacity="0.2"/>
<circle cx="93.5" cy="29.0174" r="2.72414" stroke="#1252AE" stroke-opacity="0.2"/>
<circle cx="93.5" cy="41.9138" r="2.72414" stroke="#1252AE" stroke-opacity="0.2"/>
<circle cx="93.5" cy="54.8103" r="2.72414" stroke="#1252AE" stroke-opacity="0.2"/>
<circle cx="93.5" cy="67.7068" r="2.72414" stroke="#1252AE" stroke-opacity="0.2"/>
<circle cx="93.5" cy="80.6035" r="2.72414" stroke="#1252AE" stroke-opacity="0.2"/>
<circle cx="93.5" cy="93.5" r="2.72414" stroke="#1252AE" stroke-opacity="0.2"/>
<circle cx="93.5" cy="106.396" r="2.72414" stroke="#1252AE" stroke-opacity="0.2"/>
<circle cx="93.5" cy="119.293" r="2.72414" stroke="#1252AE" stroke-opacity="0.2"/>
<circle cx="93.5" cy="132.19" r="2.72414" stroke="#1252AE" stroke-opacity="0.2"/>
<circle cx="93.5" cy="145.086" r="2.72414" stroke="#1252AE" stroke-opacity="0.2"/>
<circle cx="93.5" cy="157.983" r="2.72414" stroke="#1252AE" stroke-opacity="0.2"/>
<circle cx="93.5" cy="170.879" r="2.72414" stroke="#1252AE" stroke-opacity="0.2"/>
<circle cx="93.5" cy="183.776" r="2.72414" stroke="#1252AE" stroke-opacity="0.2"/>
<circle cx="106.397" cy="3.22414" r="2.72414" stroke="#1252AE" stroke-opacity="0.2"/>
<circle cx="106.397" cy="16.1206" r="2.72414" stroke="#1252AE" stroke-opacity="0.2"/>
<circle cx="106.397" cy="29.0174" r="2.72414" stroke="#1252AE" stroke-opacity="0.2"/>
<circle cx="106.397" cy="41.9138" r="2.72414" stroke="#1252AE" stroke-opacity="0.2"/>
<circle cx="106.397" cy="54.8103" r="2.72414" stroke="#1252AE" stroke-opacity="0.2"/>
<circle cx="106.397" cy="67.7068" r="2.72414" stroke="#1252AE" stroke-opacity="0.2"/>
<circle cx="106.397" cy="80.6035" r="2.72414" stroke="#1252AE" stroke-opacity="0.2"/>
<circle cx="106.397" cy="93.5" r="2.72414" stroke="#1252AE" stroke-opacity="0.2"/>
<circle cx="106.397" cy="106.396" r="2.72414" stroke="#1252AE" stroke-opacity="0.2"/>
<circle cx="106.397" cy="119.293" r="2.72414" stroke="#1252AE" stroke-opacity="0.2"/>
<circle cx="106.397" cy="132.19" r="2.72414" stroke="#1252AE" stroke-opacity="0.2"/>
<circle cx="106.397" cy="145.086" r="2.72414" stroke="#1252AE" stroke-opacity="0.2"/>
<circle cx="106.397" cy="157.983" r="2.72414" stroke="#1252AE" stroke-opacity="0.2"/>
<circle cx="106.397" cy="170.879" r="2.72414" stroke="#1252AE" stroke-opacity="0.2"/>
<circle cx="106.397" cy="183.776" r="2.72414" stroke="#1252AE" stroke-opacity="0.2"/>
<circle cx="119.293" cy="3.22414" r="2.72414" stroke="#1252AE" stroke-opacity="0.2"/>
<circle cx="119.293" cy="16.1206" r="2.72414" stroke="#1252AE" stroke-opacity="0.2"/>
<circle cx="119.293" cy="29.0174" r="2.72414" stroke="#1252AE" stroke-opacity="0.2"/>
<circle cx="119.293" cy="41.9138" r="2.72414" stroke="#1252AE" stroke-opacity="0.2"/>
<circle cx="119.293" cy="54.8103" r="2.72414" stroke="#1252AE" stroke-opacity="0.2"/>
<circle cx="119.293" cy="67.7068" r="2.72414" stroke="#1252AE" stroke-opacity="0.2"/>
<circle cx="119.293" cy="80.6035" r="2.72414" stroke="#1252AE" stroke-opacity="0.2"/>
<circle cx="119.293" cy="93.5" r="2.72414" stroke="#1252AE" stroke-opacity="0.2"/>
<circle cx="119.293" cy="106.396" r="2.72414" stroke="#1252AE" stroke-opacity="0.2"/>
<circle cx="119.293" cy="119.293" r="2.72414" stroke="#1252AE" stroke-opacity="0.2"/>
<circle cx="119.293" cy="132.19" r="2.72414" stroke="#1252AE" stroke-opacity="0.2"/>
<circle cx="119.293" cy="145.086" r="2.72414" stroke="#1252AE" stroke-opacity="0.2"/>
<circle cx="119.293" cy="157.983" r="2.72414" stroke="#1252AE" stroke-opacity="0.2"/>
<circle cx="119.293" cy="170.879" r="2.72414" stroke="#1252AE" stroke-opacity="0.2"/>
<circle cx="119.293" cy="183.776" r="2.72414" stroke="#1252AE" stroke-opacity="0.2"/>
<circle cx="132.19" cy="3.22414" r="2.72414" stroke="#1252AE" stroke-opacity="0.2"/>
<circle cx="132.19" cy="16.1206" r="2.72414" stroke="#1252AE" stroke-opacity="0.2"/>
<circle cx="132.19" cy="29.0174" r="2.72414" stroke="#1252AE" stroke-opacity="0.2"/>
<circle cx="132.19" cy="41.9138" r="2.72414" stroke="#1252AE" stroke-opacity="0.2"/>
<circle cx="132.19" cy="54.8103" r="2.72414" stroke="#1252AE" stroke-opacity="0.2"/>
<circle cx="132.19" cy="67.7068" r="2.72414" stroke="#1252AE" stroke-opacity="0.2"/>
<circle cx="132.19" cy="80.6035" r="2.72414" stroke="#1252AE" stroke-opacity="0.2"/>
<circle cx="132.19" cy="93.5" r="2.72414" stroke="#1252AE" stroke-opacity="0.2"/>
<circle cx="132.19" cy="106.396" r="2.72414" stroke="#1252AE" stroke-opacity="0.2"/>
<circle cx="132.19" cy="119.293" r="2.72414" stroke="#1252AE" stroke-opacity="0.2"/>
<circle cx="132.19" cy="132.19" r="2.72414" stroke="#1252AE" stroke-opacity="0.2"/>
<circle cx="132.19" cy="145.086" r="2.72414" stroke="#1252AE" stroke-opacity="0.2"/>
<circle cx="132.19" cy="157.983" r="2.72414" stroke="#1252AE" stroke-opacity="0.2"/>
<circle cx="132.19" cy="170.879" r="2.72414" stroke="#1252AE" stroke-opacity="0.2"/>
<circle cx="132.19" cy="183.776" r="2.72414" stroke="#1252AE" stroke-opacity="0.2"/>
<circle cx="145.086" cy="3.22414" r="2.72414" stroke="#1252AE" stroke-opacity="0.2"/>
<circle cx="145.086" cy="16.1206" r="2.72414" stroke="#1252AE" stroke-opacity="0.2"/>
<circle cx="145.086" cy="29.0174" r="2.72414" stroke="#1252AE" stroke-opacity="0.2"/>
<circle cx="145.086" cy="41.9138" r="2.72414" stroke="#1252AE" stroke-opacity="0.2"/>
<circle cx="145.086" cy="54.8103" r="2.72414" stroke="#1252AE" stroke-opacity="0.2"/>
<circle cx="145.086" cy="67.7068" r="2.72414" stroke="#1252AE" stroke-opacity="0.2"/>
<circle cx="145.086" cy="80.6035" r="2.72414" stroke="#1252AE" stroke-opacity="0.2"/>
<circle cx="145.086" cy="93.5" r="2.72414" stroke="#1252AE" stroke-opacity="0.2"/>
<circle cx="145.086" cy="106.396" r="2.72414" stroke="#1252AE" stroke-opacity="0.2"/>
<circle cx="145.086" cy="119.293" r="2.72414" stroke="#1252AE" stroke-opacity="0.2"/>
<circle cx="145.086" cy="132.19" r="2.72414" stroke="#1252AE" stroke-opacity="0.2"/>
<circle cx="145.086" cy="145.086" r="2.72414" stroke="#1252AE" stroke-opacity="0.2"/>
<circle cx="145.086" cy="157.983" r="2.72414" stroke="#1252AE" stroke-opacity="0.2"/>
<circle cx="145.086" cy="170.879" r="2.72414" stroke="#1252AE" stroke-opacity="0.2"/>
<circle cx="145.086" cy="183.776" r="2.72414" stroke="#1252AE" stroke-opacity="0.2"/>
<circle cx="157.983" cy="3.22414" r="2.72414" stroke="#1252AE" stroke-opacity="0.2"/>
<circle cx="157.983" cy="16.1206" r="2.72414" stroke="#1252AE" stroke-opacity="0.2"/>
<circle cx="157.983" cy="29.0174" r="2.72414" stroke="#1252AE" stroke-opacity="0.2"/>
<circle cx="157.983" cy="41.9138" r="2.72414" stroke="#1252AE" stroke-opacity="0.2"/>
<circle cx="157.983" cy="54.8103" r="2.72414" stroke="#1252AE" stroke-opacity="0.2"/>
<circle cx="157.983" cy="67.7068" r="2.72414" stroke="#1252AE" stroke-opacity="0.2"/>
<circle cx="157.983" cy="80.6035" r="2.72414" stroke="#1252AE" stroke-opacity="0.2"/>
<circle cx="157.983" cy="93.5" r="2.72414" stroke="#1252AE" stroke-opacity="0.2"/>
<circle cx="157.983" cy="106.396" r="2.72414" stroke="#1252AE" stroke-opacity="0.2"/>
<circle cx="157.983" cy="119.293" r="2.72414" stroke="#1252AE" stroke-opacity="0.2"/>
<circle cx="157.983" cy="132.19" r="2.72414" stroke="#1252AE" stroke-opacity="0.2"/>
<circle cx="157.983" cy="145.086" r="2.72414" stroke="#1252AE" stroke-opacity="0.2"/>
<circle cx="157.983" cy="157.983" r="2.72414" stroke="#1252AE" stroke-opacity="0.2"/>
<circle cx="157.983" cy="170.879" r="2.72414" stroke="#1252AE" stroke-opacity="0.2"/>
<circle cx="157.983" cy="183.776" r="2.72414" stroke="#1252AE" stroke-opacity="0.2"/>
<circle cx="170.879" cy="3.22414" r="2.72414" stroke="#1252AE" stroke-opacity="0.2"/>
<circle cx="170.879" cy="16.1206" r="2.72414" stroke="#1252AE" stroke-opacity="0.2"/>
<circle cx="170.879" cy="29.0174" r="2.72414" stroke="#1252AE" stroke-opacity="0.2"/>
<circle cx="170.879" cy="41.9138" r="2.72414" stroke="#1252AE" stroke-opacity="0.2"/>
<circle cx="170.879" cy="54.8103" r="2.72414" stroke="#1252AE" stroke-opacity="0.2"/>
<circle cx="170.879" cy="67.7068" r="2.72414" stroke="#1252AE" stroke-opacity="0.2"/>
<circle cx="170.879" cy="80.6035" r="2.72414" stroke="#1252AE" stroke-opacity="0.2"/>
<circle cx="170.879" cy="93.5" r="2.72414" stroke="#1252AE" stroke-opacity="0.2"/>
<circle cx="170.879" cy="106.396" r="2.72414" stroke="#1252AE" stroke-opacity="0.2"/>
<circle cx="170.879" cy="119.293" r="2.72414" stroke="#1252AE" stroke-opacity="0.2"/>
<circle cx="170.879" cy="132.19" r="2.72414" stroke="#1252AE" stroke-opacity="0.2"/>
<circle cx="170.879" cy="145.086" r="2.72414" stroke="#1252AE" stroke-opacity="0.2"/>
<circle cx="170.879" cy="157.983" r="2.72414" stroke="#1252AE" stroke-opacity="0.2"/>
<circle cx="170.879" cy="170.879" r="2.72414" stroke="#1252AE" stroke-opacity="0.2"/>
<circle cx="170.879" cy="183.776" r="2.72414" stroke="#1252AE" stroke-opacity="0.2"/>
<circle cx="183.776" cy="3.22414" r="2.72414" stroke="#1252AE" stroke-opacity="0.2"/>
<circle cx="183.776" cy="16.1206" r="2.72414" stroke="#1252AE" stroke-opacity="0.2"/>
<circle cx="183.776" cy="29.0174" r="2.72414" stroke="#1252AE" stroke-opacity="0.2"/>
<circle cx="183.776" cy="41.9138" r="2.72414" stroke="#1252AE" stroke-opacity="0.2"/>
<circle cx="183.776" cy="54.8103" r="2.72414" stroke="#1252AE" stroke-opacity="0.2"/>
<circle cx="183.776" cy="67.7068" r="2.72414" stroke="#1252AE" stroke-opacity="0.2"/>
<circle cx="183.776" cy="80.6035" r="2.72414" stroke="#1252AE" stroke-opacity="0.2"/>
<circle cx="183.776" cy="93.5" r="2.72414" stroke="#1252AE" stroke-opacity="0.2"/>
<circle cx="183.776" cy="106.396" r="2.72414" stroke="#1252AE" stroke-opacity="0.2"/>
<circle cx="183.776" cy="119.293" r="2.72414" stroke="#1252AE" stroke-opacity="0.2"/>
<circle cx="183.776" cy="132.19" r="2.72414" stroke="#1252AE" stroke-opacity="0.2"/>
<circle cx="183.776" cy="145.086" r="2.72414" stroke="#1252AE" stroke-opacity="0.2"/>
<circle cx="183.776" cy="157.983" r="2.72414" stroke="#1252AE" stroke-opacity="0.2"/>
<circle cx="183.776" cy="170.879" r="2.72414" stroke="#1252AE" stroke-opacity="0.2"/>
<circle cx="183.776" cy="183.776" r="2.72414" stroke="#1252AE" stroke-opacity="0.2"/>
</svg>
