<svg width="14" height="14" viewBox="0 0 14 14" fill="none" xmlns="http://www.w3.org/2000/svg">
<path d="M4.08331 8.75H5.24998C5.24998 9.38 6.04915 9.91667 6.99998 9.91667C7.95081 9.91667 8.74998 9.38 8.74998 8.75C8.74998 8.10833 8.14331 7.875 6.85998 7.56583C5.62331 7.25667 4.08331 6.87167 4.08331 5.25C4.08331 4.20583 4.94081 3.31917 6.12498 3.02167V1.75H7.87498V3.02167C9.05915 3.31917 9.91665 4.20583 9.91665 5.25H8.74998C8.74998 4.62 7.95081 4.08333 6.99998 4.08333C6.04915 4.08333 5.24998 4.62 5.24998 5.25C5.24998 5.89167 5.85665 6.125 7.13998 6.43417C8.37665 6.74333 9.91665 7.12833 9.91665 8.75C9.91665 9.79417 9.05915 10.6808 7.87498 10.9783V12.25H6.12498V10.9783C4.94081 10.6808 4.08331 9.79417 4.08331 8.75Z" fill="#1252AE"/>
</svg>
