<svg width="60" height="60" viewBox="0 0 60 60" fill="none" xmlns="http://www.w3.org/2000/svg">
<path d="M30 5C26.717 5 23.4661 5.64664 20.4329 6.90301C17.3998 8.15938 14.6438 10.0009 12.3223 12.3223C7.63392 17.0107 5 23.3696 5 30C5 36.6304 7.63392 42.9893 12.3223 47.6777C14.6438 49.9991 17.3998 51.8406 20.4329 53.097C23.4661 54.3534 26.717 55 30 55C36.6304 55 42.9893 52.3661 47.6777 47.6777C52.3661 42.9893 55 36.6304 55 30C55 26.717 54.3534 23.4661 53.097 20.4329C51.8406 17.3998 49.9991 14.6438 47.6777 12.3223C45.3562 10.0009 42.6002 8.15938 39.5671 6.90301C36.5339 5.64664 33.283 5 30 5ZM17.5 23.75C17.5 21.75 19.25 20 21.25 20C23.25 20 25 21.75 25 23.75C25 25.75 23.25 27.5 21.25 27.5C19.25 27.5 17.5 25.75 17.5 23.75ZM30 43.075C25.625 43.075 21.775 41.25 19.525 38.55L23.075 35C24.2 36.8 26.875 38.075 30 38.075C33.125 38.075 35.8 36.8 36.925 35L40.475 38.55C38.225 41.25 34.375 43.075 30 43.075ZM38.75 27.5C36.75 27.5 35 25.75 35 23.75C35 21.75 36.75 20 38.75 20C40.75 20 42.5 21.75 42.5 23.75C42.5 25.75 40.75 27.5 38.75 27.5Z" fill="#1252AE"/>
</svg>
