<svg width="32" height="32" viewBox="0 0 32 32" fill="none" xmlns="http://www.w3.org/2000/svg">
<rect width="32" height="32" rx="4" fill="#2A323C" fill-opacity="0.1"/>
<path d="M16 7.7002C11.4167 7.7002 7.66666 11.4419 7.66666 16.0502C7.66666 20.2169 10.7167 23.6752 14.7 24.3002V18.4669H12.5833V16.0502H14.7V14.2085C14.7 12.1169 15.9417 10.9669 17.85 10.9669C18.7583 10.9669 19.7083 11.1252 19.7083 11.1252V13.1835H18.6583C17.625 13.1835 17.3 13.8252 17.3 14.4835V16.0502H19.6167L19.2417 18.4669H17.3V24.3002C19.2637 23.9901 21.0518 22.9881 22.3416 21.4752C23.6314 19.9624 24.3378 18.0382 24.3333 16.0502C24.3333 11.4419 20.5833 7.7002 16 7.7002Z" fill="#5B687C"/>
</svg>
