<svg width="32" height="32" viewBox="0 0 32 32" fill="none" xmlns="http://www.w3.org/2000/svg">
<rect width="32" height="32" rx="4" fill="#2A323C" fill-opacity="0.1"/>
<path d="M16.025 19.775C13.8083 19.775 12.8167 18.6833 12.8167 17.8667C12.8167 17.45 13.125 17.15 13.55 17.15C14.5 17.15 14.2583 18.5 16.025 18.5C16.9333 18.5 17.4417 18.025 17.4417 17.5167C17.4417 17.2167 17.2917 16.8833 16.6917 16.7333L14.7167 16.2417C13.125 15.8417 12.8333 14.9833 12.8333 14.175C12.8333 12.4917 14.4167 11.8583 15.9 11.8583C17.25 11.8583 18.8833 12.6167 18.8833 13.625C18.8833 14.0583 18.5 14.3083 18.0833 14.3083C17.25 14.3083 17.4167 13.1833 15.7833 13.1833C14.975 13.1833 14.525 13.55 14.525 14.075C14.525 14.6 15.1667 14.75 15.7167 14.9L17.1833 15.225C18.7833 15.5833 19.1917 16.5167 19.1917 17.3917C19.1917 18.7583 18.1417 19.775 16.025 19.775ZM21 11C22.725 12.7 23.375 15.075 22.9667 17.2917C23.3083 17.8917 23.5 18.5917 23.5 19.3333C23.5 20.4384 23.061 21.4982 22.2796 22.2796C21.4982 23.061 20.4384 23.5 19.3333 23.5C18.5917 23.5 17.8917 23.3083 17.2917 22.9667C15.075 23.375 12.7 22.725 11 21C9.275 19.3 8.625 16.925 9.03333 14.7083C8.69167 14.1083 8.5 13.4083 8.5 12.6667C8.5 11.5616 8.93899 10.5018 9.72039 9.72039C10.5018 8.93899 11.5616 8.5 12.6667 8.5C13.4083 8.5 14.1083 8.69167 14.7083 9.03333C16.925 8.625 19.3 9.275 21 11ZM12.6667 10.1667C12.0036 10.1667 11.3677 10.4301 10.8989 10.8989C10.4301 11.3677 10.1667 12.0036 10.1667 12.6667C10.1667 13.325 10.4167 13.9167 10.8333 14.3667C10.25 16.2333 10.6917 18.35 12.1667 19.8333C13.65 21.3083 15.7667 21.75 17.6333 21.1667C18.0833 21.5833 18.675 21.8333 19.3333 21.8333C19.9964 21.8333 20.6323 21.5699 21.1011 21.1011C21.5699 20.6323 21.8333 19.9964 21.8333 19.3333C21.8333 18.675 21.5833 18.0833 21.1667 17.6333C21.75 15.7667 21.3083 13.65 19.8333 12.1667C18.35 10.6917 16.2333 10.25 14.3667 10.8333C13.9167 10.4167 13.325 10.1667 12.6667 10.1667Z" fill="#5B687C"/>
</svg>
