<svg width="36" height="36" viewBox="0 0 36 36" fill="none" xmlns="http://www.w3.org/2000/svg">
<rect width="36" height="36" rx="18" fill="#1252AE" fill-opacity="0.12"/>
<path d="M13.95 17.1C15 19.2 16.8 20.925 18.9 22.05L20.55 20.4C20.775 20.175 21.075 20.1 21.3 20.25C22.125 20.55 23.025 20.7 24 20.7C24.45 20.7 24.75 21 24.75 21.45V24C24.75 24.45 24.45 24.75 24 24.75C16.95 24.75 11.25 19.05 11.25 12C11.25 11.55 11.625 11.25 12 11.25H14.625C15.075 11.25 15.375 11.55 15.375 12C15.375 12.9 15.525 13.8 15.825 14.7C15.9 14.925 15.825 15.225 15.675 15.45L13.95 17.1ZM19.5 11.25C19.05 11.25 18.75 11.55 18.75 12C18.75 12.45 19.05 12.75 19.5 12.75C19.95 12.75 20.25 12.45 20.25 12C20.25 11.55 19.95 11.25 19.5 11.25ZM21.75 11.25C21.3 11.25 21 11.55 21 12C21 12.45 21.3 12.75 21.75 12.75C22.2 12.75 22.5 12.45 22.5 12C22.5 11.55 22.2 11.25 21.75 11.25ZM24 11.25C23.55 11.25 23.25 11.55 23.25 12C23.25 12.45 23.55 12.75 24 12.75C24.45 12.75 24.75 12.45 24.75 12C24.75 11.55 24.45 11.25 24 11.25ZM19.5 13.5C19.05 13.5 18.75 13.8 18.75 14.25C18.75 14.7 19.05 15 19.5 15C19.95 15 20.25 14.7 20.25 14.25C20.25 13.8 19.95 13.5 19.5 13.5ZM21.75 13.5C21.3 13.5 21 13.8 21 14.25C21 14.7 21.3 15 21.75 15C22.2 15 22.5 14.7 22.5 14.25C22.5 13.8 22.2 13.5 21.75 13.5ZM24 13.5C23.55 13.5 23.25 13.8 23.25 14.25C23.25 14.7 23.55 15 24 15C24.45 15 24.75 14.7 24.75 14.25C24.75 13.8 24.45 13.5 24 13.5ZM19.5 15.75C19.05 15.75 18.75 16.05 18.75 16.5C18.75 16.95 19.05 17.25 19.5 17.25C19.95 17.25 20.25 16.95 20.25 16.5C20.25 16.05 19.95 15.75 19.5 15.75ZM21.75 15.75C21.3 15.75 21 16.05 21 16.5C21 16.95 21.3 17.25 21.75 17.25C22.2 17.25 22.5 16.95 22.5 16.5C22.5 16.05 22.2 15.75 21.75 15.75ZM24 15.75C23.55 15.75 23.25 16.05 23.25 16.5C23.25 16.95 23.55 17.25 24 17.25C24.45 17.25 24.75 16.95 24.75 16.5C24.75 16.05 24.45 15.75 24 15.75Z" fill="#1252AE"/>
</svg>
