<svg width="36" height="36" viewBox="0 0 36 36" fill="none" xmlns="http://www.w3.org/2000/svg">
<rect width="36" height="36" rx="18" fill="#1252AE" fill-opacity="0.12"/>
<path d="M18 12C19.65 12 21 13.35 21 15C21 16.575 19.425 19.125 18 20.925C16.575 19.05 15 16.575 15 15C15 13.35 16.35 12 18 12ZM18 10.5C15.525 10.5 13.5 12.525 13.5 15C13.5 18.375 18 23.25 18 23.25C18 23.25 22.5 18.3 22.5 15C22.5 12.525 20.475 10.5 18 10.5ZM18 13.5C17.175 13.5 16.5 14.175 16.5 15C16.5 15.825 17.175 16.5 18 16.5C18.825 16.5 19.5 15.825 19.5 15C19.5 14.175 18.825 13.5 18 13.5ZM24 23.25C24 24.9 21.3 26.25 18 26.25C14.7 26.25 12 24.9 12 23.25C12 22.275 12.9 21.45 14.325 20.85L14.775 21.525C14.025 21.9 13.5 22.35 13.5 22.875C13.5 23.925 15.525 24.75 18 24.75C20.475 24.75 22.5 23.925 22.5 22.875C22.5 22.35 21.975 21.9 21.15 21.525L21.6 20.85C23.1 21.45 24 22.275 24 23.25Z" fill="#1252AE"/>
</svg>
