<svg width="32" height="32" viewBox="0 0 32 32" fill="none" xmlns="http://www.w3.org/2000/svg">
<rect width="32" height="32" rx="4" fill="#2A323C" fill-opacity="0.1"/>
<path d="M12.5 7.6665H19.5C22.1667 7.6665 24.3333 9.83317 24.3333 12.4998V19.4998C24.3333 20.7817 23.8241 22.0111 22.9177 22.9175C22.0112 23.8239 20.7819 24.3332 19.5 24.3332H12.5C9.83332 24.3332 7.66666 22.1665 7.66666 19.4998V12.4998C7.66666 11.218 8.17588 9.98858 9.08231 9.08215C9.98873 8.17573 11.2181 7.6665 12.5 7.6665ZM12.3333 9.33317C11.5377 9.33317 10.7746 9.64924 10.212 10.2119C9.64939 10.7745 9.33332 11.5375 9.33332 12.3332V19.6665C9.33332 21.3248 10.675 22.6665 12.3333 22.6665H19.6667C20.4623 22.6665 21.2254 22.3504 21.788 21.7878C22.3506 21.2252 22.6667 20.4622 22.6667 19.6665V12.3332C22.6667 10.6748 21.325 9.33317 19.6667 9.33317H12.3333ZM20.375 10.5832C20.6513 10.5832 20.9162 10.6929 21.1116 10.8883C21.3069 11.0836 21.4167 11.3486 21.4167 11.6248C21.4167 11.9011 21.3069 12.1661 21.1116 12.3614C20.9162 12.5568 20.6513 12.6665 20.375 12.6665C20.0987 12.6665 19.8338 12.5568 19.6384 12.3614C19.4431 12.1661 19.3333 11.9011 19.3333 11.6248C19.3333 11.3486 19.4431 11.0836 19.6384 10.8883C19.8338 10.6929 20.0987 10.5832 20.375 10.5832ZM16 11.8332C17.1051 11.8332 18.1649 12.2722 18.9463 13.0536C19.7277 13.835 20.1667 14.8948 20.1667 15.9998C20.1667 17.1049 19.7277 18.1647 18.9463 18.9461C18.1649 19.7275 17.1051 20.1665 16 20.1665C14.8949 20.1665 13.8351 19.7275 13.0537 18.9461C12.2723 18.1647 11.8333 17.1049 11.8333 15.9998C11.8333 14.8948 12.2723 13.835 13.0537 13.0536C13.8351 12.2722 14.8949 11.8332 16 11.8332ZM16 13.4998C15.3369 13.4998 14.7011 13.7632 14.2322 14.2321C13.7634 14.7009 13.5 15.3368 13.5 15.9998C13.5 16.6629 13.7634 17.2988 14.2322 17.7676C14.7011 18.2364 15.3369 18.4998 16 18.4998C16.663 18.4998 17.2989 18.2364 17.7678 17.7676C18.2366 17.2988 18.5 16.6629 18.5 15.9998C18.5 15.3368 18.2366 14.7009 17.7678 14.2321C17.2989 13.7632 16.663 13.4998 16 13.4998Z" fill="#5B687C"/>
</svg>
