<svg width="14" height="14" viewBox="0 0 14 14" fill="none" xmlns="http://www.w3.org/2000/svg">
<path d="M7.00001 2.33335C8.28334 2.33335 9.33334 3.38335 9.33334 4.66669C9.33334 5.89169 8.10834 7.87502 7.00001 9.27502C5.89168 7.81669 4.66668 5.89169 4.66668 4.66669C4.66668 3.38335 5.71668 2.33335 7.00001 2.33335ZM7.00001 1.16669C5.07501 1.16669 3.50001 2.74169 3.50001 4.66669C3.50001 7.29169 7.00001 11.0834 7.00001 11.0834C7.00001 11.0834 10.5 7.23335 10.5 4.66669C10.5 2.74169 8.92501 1.16669 7.00001 1.16669ZM7.00001 3.50002C6.35834 3.50002 5.83334 4.02502 5.83334 4.66669C5.83334 5.30835 6.35834 5.83335 7.00001 5.83335C7.64168 5.83335 8.16668 5.30835 8.16668 4.66669C8.16668 4.02502 7.64168 3.50002 7.00001 3.50002ZM11.6667 11.0834C11.6667 12.3667 9.56668 13.4167 7.00001 13.4167C4.43334 13.4167 2.33334 12.3667 2.33334 11.0834C2.33334 10.325 3.03334 9.68335 4.14168 9.21669L4.49168 9.74169C3.90834 10.0334 3.50001 10.3834 3.50001 10.7917C3.50001 11.6084 5.07501 12.25 7.00001 12.25C8.92501 12.25 10.5 11.6084 10.5 10.7917C10.5 10.3834 10.0917 10.0334 9.45001 9.74169L9.80001 9.21669C10.9667 9.68335 11.6667 10.325 11.6667 11.0834Z" fill="#1252AE"/>
</svg>
