<svg width="96" height="16" viewBox="0 0 96 16" fill="none" xmlns="http://www.w3.org/2000/svg">
<path d="M8.00001 11.5135L12.12 14.0002L11.0267 9.3135L14.6667 6.16016L9.87334 5.74683L8.00001 1.3335L6.12668 5.74683L1.33334 6.16016L4.96668 9.3135L3.88001 14.0002L8.00001 11.5135Z" fill="#E3C814"/>
<path d="M28 11.5135L32.12 14.0002L31.0267 9.3135L34.6667 6.16016L29.8733 5.74683L28 1.3335L26.1267 5.74683L21.3333 6.16016L24.9667 9.3135L23.88 14.0002L28 11.5135Z" fill="#E3C814"/>
<path d="M48 11.5135L52.12 14.0002L51.0267 9.3135L54.6667 6.16016L49.8733 5.74683L48 1.3335L46.1267 5.74683L41.3333 6.16016L44.9667 9.3135L43.88 14.0002L48 11.5135Z" fill="#E3C814"/>
<path d="M68 11.5135L72.12 14.0002L71.0267 9.3135L74.6667 6.16016L69.8733 5.74683L68 1.3335L66.1267 5.74683L61.3333 6.16016L64.9667 9.3135L63.88 14.0002L68 11.5135Z" fill="#E3C814"/>
<path d="M88 11.5135L92.12 14.0002L91.0267 9.3135L94.6667 6.16016L89.8733 5.74683L88 1.3335L86.1267 5.74683L81.3333 6.16016L84.9667 9.3135L83.88 14.0002L88 11.5135Z" fill="#E3C814"/>
</svg>
