<svg width="32" height="32" viewBox="0 0 32 32" fill="none" xmlns="http://www.w3.org/2000/svg">
<rect width="32" height="32" rx="4" fill="#2A323C" fill-opacity="0.1"/>
<path d="M16.0333 7.6665C11.4833 7.6665 7.77501 11.3748 7.77501 15.9248C7.77501 17.3832 8.15834 18.7998 8.87501 20.0498L7.70834 24.3332L12.0833 23.1832C13.2917 23.8415 14.65 24.1915 16.0333 24.1915C20.5833 24.1915 24.2917 20.4832 24.2917 15.9332C24.2917 13.7248 23.4333 11.6498 21.875 10.0915C20.3167 8.52484 18.2417 7.6665 16.0333 7.6665ZM16.0417 9.05817C17.875 9.05817 19.5917 9.77484 20.8917 11.0748C22.1833 12.3748 22.9 14.0998 22.9 15.9332C22.9 19.7165 19.8167 22.7915 16.0333 22.7915C14.8 22.7915 13.5917 22.4665 12.5417 21.8332L12.2917 21.6915L9.69168 22.3748L10.3833 19.8415L10.2167 19.5748C9.53334 18.4998 9.16668 17.2248 9.16668 15.9248C9.17501 12.1415 12.25 9.05817 16.0417 9.05817ZM13.1083 12.1082C12.975 12.1082 12.75 12.1582 12.5583 12.3665C12.375 12.5748 11.8333 13.0832 11.8333 14.0915C11.8333 15.1082 12.575 16.0832 12.6667 16.2248C12.7833 16.3665 14.1333 18.4498 16.2083 19.3332C16.7 19.5582 17.0833 19.6832 17.3833 19.7748C17.875 19.9332 18.325 19.9082 18.6833 19.8582C19.0833 19.7998 19.9 19.3582 20.075 18.8748C20.25 18.3915 20.25 17.9832 20.2 17.8915C20.1417 17.8082 20.0083 17.7582 19.8 17.6665C19.5917 17.5498 18.575 17.0498 18.3917 16.9832C18.2 16.9165 18.0833 16.8832 17.925 17.0832C17.7917 17.2915 17.3917 17.7582 17.275 17.8915C17.15 18.0332 17.0333 18.0498 16.8333 17.9498C16.6167 17.8415 15.95 17.6248 15.1667 16.9248C14.55 16.3748 14.1417 15.6998 14.0167 15.4915C13.9167 15.2915 14.0083 15.1665 14.1083 15.0748C14.2 14.9832 14.3333 14.8332 14.4167 14.7082C14.525 14.5915 14.5583 14.4998 14.625 14.3665C14.6917 14.2248 14.6583 14.1082 14.6083 14.0082C14.5583 13.9165 14.1417 12.8832 13.9667 12.4748C13.8 12.0748 13.6333 12.1248 13.5 12.1165C13.3833 12.1165 13.25 12.1082 13.1083 12.1082Z" fill="#5B687C"/>
</svg>
